<svg width="300" height="300" viewBox="0 0 300 300" fill="none" xmlns="http://www.w3.org/2000/svg">
<g clip-path="url(#clip0_156_19)">
<path d="M208.719 231.545C207.648 231.545 207.07 231.514 207.07 231.514L184.788 231.179H145.346C144.482 231.179 143.662 230.796 143.106 230.134C142.551 229.473 142.317 228.599 142.466 227.747L170.122 70.8981C170.369 69.5019 171.582 68.4829 173.002 68.4829H234.881C235.073 68.4741 235.599 68.4566 236.41 68.4566C244.121 68.4566 270.559 69.9756 286.97 89.5323C298.964 103.826 302.703 124.361 298.084 150.564C284.495 227.637 221.257 231.545 208.719 231.545ZM148.831 225.331H184.832L207.266 225.669C207.412 225.675 207.88 225.697 208.719 225.697C220.438 225.697 279.546 222.023 292.325 149.548C296.63 125.128 293.322 106.2 282.49 93.2925C267.325 75.2211 241.445 74.3059 236.41 74.3059C235.593 74.3059 235.127 74.3264 235.089 74.3293L175.455 74.3322L148.831 225.331ZM82.6905 231.52H2.92408C2.06006 231.52 1.23989 231.137 0.684346 230.475C0.128799 229.814 -0.105116 228.94 0.0440048 228.087L6.97227 188.794C7.21788 187.398 8.43277 186.379 9.85234 186.379H74.3032C81.3952 186.379 88.1845 180.594 89.4389 173.481L91.0047 164.604H14.7236C13.8596 164.604 13.0394 164.221 12.4839 163.559C11.9283 162.898 11.6944 162.024 11.8435 161.172L16.0218 137.473C16.2017 136.456 16.9063 135.606 17.8756 135.244L75.654 113.596H23.7176C22.8536 113.596 22.0334 113.213 21.4779 112.551C20.9224 111.89 20.6884 111.016 20.8376 110.164L27.7658 70.8703C28.0114 69.4741 29.2263 68.4551 30.6459 68.4551H149.706C150.57 68.4551 151.39 68.8382 151.945 69.5004C152.501 70.1613 152.735 71.0355 152.586 71.8878L145.656 111.181C145.476 112.197 144.774 113.044 143.809 113.408L86.4609 135.058H107.626C107.737 135.058 107.847 135.064 107.955 135.077H137.959C138.823 135.077 139.643 135.46 140.198 136.122C140.754 136.783 140.988 137.657 140.839 138.51L131.792 189.813C127.735 212.808 105.709 231.52 82.6905 231.52ZM6.40795 225.672H82.6905C103.003 225.672 122.446 209.13 126.032 188.795L134.473 140.923H107.621C107.51 140.923 107.401 140.918 107.292 140.904H70.4362C69.024 140.904 67.8135 139.896 67.5606 138.505C67.3062 137.115 68.0825 135.742 69.4041 135.245L140.187 108.525L146.222 74.303H33.0991L27.2015 107.748H91.7927C93.2064 107.748 94.4169 108.76 94.6698 110.152C94.9227 111.542 94.1435 112.915 92.819 113.411L21.4925 140.134L18.2089 158.756H94.49C95.354 158.756 96.1742 159.139 96.7297 159.802C97.2853 160.463 97.5192 161.337 97.3701 162.189L95.199 174.499C93.4754 184.275 84.1027 192.228 74.3046 192.228H12.307L6.40795 225.672ZM198.803 192.035C194.38 192.034 191.575 191.719 191.458 191.706C190.657 191.614 189.929 191.196 189.446 190.55C188.964 189.905 188.769 189.088 188.91 188.293L202.652 110.351C202.877 109.072 203.921 108.095 205.212 107.952C205.623 107.908 238.144 104.338 252.67 121.647C258.716 128.852 260.723 138.504 258.637 150.337C252.001 187.971 214.585 192.035 198.803 192.035ZM195.233 186.111C196.228 186.155 197.431 186.189 198.801 186.189C213.105 186.189 247.011 182.597 252.877 149.322C254.648 139.273 253.072 131.226 248.19 125.409C237.758 112.976 215.108 113.204 208.016 113.604L195.233 186.111Z" fill="#262628"/>
</g>
<defs>
<clipPath id="clip0_156_19">
<rect width="300" height="300" fill="white"/>
</clipPath>
</defs>
</svg>
