<svg width="64" height="64" viewBox="0 0 64 64" fill="none" xmlns="http://www.w3.org/2000/svg">
<g clip-path="url(#clip0_20_165)">
<path d="M22.5861 44.7935H20.2766C18.7761 44.7935 17.5496 46.02 17.5496 47.5205C17.5496 49.021 18.7761 50.2475 20.2766 50.2475H22.5861C24.0866 50.2475 25.3131 49.021 25.3131 47.5205C25.3 46.02 24.0735 44.7935 22.5861 44.7935Z" fill="#2615E8"/>
<path d="M43.6713 44.7935H41.3618C39.8613 44.7935 38.6348 46.02 38.6348 47.5205C38.6348 49.021 39.8613 50.2475 41.3618 50.2475H43.6713C45.1718 50.2475 46.3983 49.021 46.3983 47.5205C46.3852 46.02 45.1587 44.7935 43.6713 44.7935Z" fill="#2615E8"/>
<path d="M61.2077 6.56313H56.7193V5.74111C56.7193 2.60961 54.1358 0.026123 51.0043 0.026123H12.9174C9.78593 0.026123 7.20245 2.60961 7.20245 5.74111V6.69361H2.72701C1.2265 6.70665 0 7.93316 0 9.42062V21.3856C0 22.8861 1.2265 24.1126 2.72701 24.1126C4.084 24.1126 5.3105 22.8861 5.3105 21.5291V12.1476H7.21549V53.4965C7.21549 55.5319 8.31152 57.3326 9.94251 58.3503V61.2469C9.94251 62.7474 11.169 63.9739 12.6695 63.9739C14.17 63.9739 15.3965 62.7474 15.3965 61.2469V59.2114H48.5904V61.2469C48.5904 62.7474 49.8169 63.9739 51.3174 63.9739C52.8179 63.9739 53.9009 62.7474 54.0444 61.2469V58.3503C55.6754 57.3326 56.7715 55.5319 56.7715 53.4965V12.0041H58.546V21.3856C58.546 22.8861 59.7725 24.1126 61.273 24.1126C62.7735 24.1126 64 22.8861 64 21.3856V9.29014C63.9348 7.78963 62.7083 6.56313 61.2077 6.56313ZM12.9174 53.914C12.6434 53.914 12.5129 53.7835 12.5129 53.5095V42.0795H51.4218V53.5095C51.4218 53.7835 51.2913 53.914 51.0173 53.914H12.9174ZM12.9174 5.34967H51.0173C51.2913 5.34967 51.4218 5.48015 51.4218 5.75416V34.1464L39.9918 25.5478V21.3986C39.9918 19.8981 38.7653 18.6716 37.2648 18.6716C35.7643 18.6716 34.5378 19.8981 34.5378 21.3986V32.411C34.5378 33.9115 35.7643 35.1381 37.2648 35.1381C38.7653 35.1381 39.8483 33.9115 39.9918 32.411V32.1109L45.9939 36.6255H19.2457L25.2999 32.0326V32.411C25.2999 33.9115 26.5264 35.1381 28.0269 35.1381C29.3839 35.1381 30.6104 33.9115 30.7539 32.411V21.3986C30.7539 19.8981 29.5274 18.6716 28.0269 18.6716C26.5264 18.6716 25.2999 19.8981 25.2999 21.3986V25.4435L12.5129 35.0598V5.75416C12.5129 5.48015 12.6565 5.34967 12.9174 5.34967Z" fill="#2615E8"/>
</g>
<defs>
<clipPath id="clip0_20_165">
<rect width="64" height="64" fill="white"/>
</clipPath>
</defs>
</svg>
