<svg width="85" height="85" viewBox="0 0 85 85" fill="none" xmlns="http://www.w3.org/2000/svg">
<g clip-path="url(#clip0_173_2)">
<path d="M42.4996 74.3742C44.4546 74.3742 46.0411 72.7876 46.0411 70.8326C46.0411 68.8776 44.4546 67.291 42.4996 67.291C40.5446 67.291 38.958 68.8776 38.958 70.8326C38.958 72.7876 40.5446 74.3742 42.4996 74.3742Z" fill="#8E8283"/>
<path d="M77.9157 14.188V7.08314H81.4573C83.4132 7.08314 84.9988 5.49754 84.9988 3.54157C84.9988 1.5856 83.4132 1.30352e-08 81.4573 1.30352e-08H67.2908C65.3349 -0.000166001 63.7493 1.58543 63.7493 3.54157C63.7493 5.49754 65.3349 7.08314 67.2908 7.08314H70.8324V14.188C66.8746 14.4688 63.7503 17.7681 63.7503 21.7986V26.444L60.2749 28.7757V24.7913C60.2749 22.8354 58.6893 21.2498 56.7334 21.2498H28.4003C26.4443 21.2498 24.8587 22.8354 24.8587 24.7913V28.8213L21.2509 26.4312V21.7986C21.2509 17.7674 18.126 14.4693 14.1666 14.188V7.08314H17.7082C19.6642 7.08314 21.2498 5.49754 21.2498 3.54157C21.2498 1.5856 19.6642 1.30352e-08 17.7082 1.30352e-08H3.54157C1.5856 -0.000166001 0 1.58543 0 3.54157C0 5.49754 1.5856 7.08314 3.54157 7.08314H7.08314V14.188C3.12537 14.4688 0.000996082 17.7681 0.000996082 21.7986V45.4921C0.000996082 49.7067 3.41656 53.1242 7.62966 53.1242H13.6186C17.8342 53.1242 21.2507 49.7075 21.2507 45.4921V34.9276L24.8586 37.3177V46.0389C22.0936 48.3336 20.1481 51.645 18.9808 55.6825C17.8621 59.5528 17.5794 63.5122 17.7462 66.9256C17.7613 67.2334 17.7772 67.4622 17.7897 67.6031C17.9622 69.5514 19.6814 70.9911 21.6298 70.8188C23.5781 70.6463 25.0178 68.9271 24.8454 66.9787C24.841 66.9283 24.8315 66.7921 24.821 66.5798C24.6891 63.8792 24.92 60.6435 25.7854 57.6496C27.3056 52.3908 30.2379 49.5828 35.4839 49.5828H39.0087L38.975 56.6661H31.8746C29.9187 56.6661 28.3331 58.2517 28.3331 60.2077V81.4574C28.3331 83.4134 29.9187 84.999 31.8746 84.999H53.1244C55.0804 84.999 56.666 83.4134 56.666 81.4574V60.2077C56.666 58.2517 55.0804 56.6661 53.1244 56.6661H46.0587L46.0924 49.5828H49.6507C54.8967 49.5828 57.829 52.3909 59.3492 57.6496C60.2147 60.6435 60.4457 63.8791 60.3136 66.5798C60.3031 66.7921 60.2937 66.9283 60.2892 66.9787C60.1167 68.9271 61.5564 70.6463 63.5049 70.8188C65.4532 70.9913 67.1725 69.5516 67.3449 67.6031C67.3574 67.4622 67.3733 67.2334 67.3884 66.9256C67.5553 63.5122 67.2727 59.5528 66.1538 55.6825C64.9866 51.6445 63.0405 48.3326 60.2748 46.0379V37.3056L63.7501 34.9739V45.4924C63.7501 49.707 67.1657 53.1245 71.3787 53.1245H77.3677C81.5833 53.1245 84.9998 49.7078 84.9998 45.4924V21.7986C85 17.7674 81.8753 14.4693 77.9157 14.188ZM13.6186 46.0411H7.62966C7.3295 46.0411 7.0843 45.7955 7.0843 45.4921V21.7986C7.0843 21.4951 7.32967 21.2496 7.62966 21.2496H13.6186C13.9222 21.2496 14.1676 21.495 14.1676 21.7986V28.3468C14.1676 28.3553 14.1674 28.3638 14.1676 28.3721V45.4921C14.1676 45.7955 13.9222 46.0411 13.6186 46.0411ZM49.5828 77.9157H35.4164V63.7493H49.5828V77.9157ZM31.9419 42.4993V35.4112C31.9419 35.3976 31.942 35.3842 31.9419 35.3707V28.3329H53.1916V42.4993H31.9419ZM77.9169 45.4921C77.9169 45.7957 77.6715 46.0411 77.3679 46.0411H71.3789C71.0788 46.0411 70.8336 45.7955 70.8336 45.4921V21.7986C70.8336 21.4951 71.0789 21.2496 71.3789 21.2496H77.3679C77.6715 21.2496 77.9169 21.495 77.9169 21.7986V45.4921Z" fill="#8E8283"/>
</g>
<defs>
<clipPath id="clip0_173_2">
<rect width="85" height="85" fill="white"/>
</clipPath>
</defs>
</svg>
