<svg width="85" height="85" viewBox="0 0 85 85" fill="none" xmlns="http://www.w3.org/2000/svg">
<g clip-path="url(#clip0_173_41)">
<path d="M75.7927 73.6842H72.2244V55.5529C72.2244 55.0753 71.8367 54.6879 71.3589 54.6879H67.3316V40.8338L67.7531 41.0083C67.9699 41.0979 68.1939 41.1403 68.4145 41.1403C69.0932 41.1403 69.7376 40.738 70.0134 40.0719L72.4757 34.1253C72.6509 33.7012 72.6509 33.2251 72.4753 32.8011C72.2998 32.3772 71.963 32.0406 71.5389 31.865L34.1458 16.3825C35.5124 13.7762 36.7404 11.121 37.796 8.49105C38.149 7.61109 37.7282 6.61092 36.8523 6.24848L22.0812 0.132096C21.206 -0.230711 20.2005 0.179177 19.8285 1.05121C16.1711 9.61585 13.812 19.1613 12.4041 31.0911C12.3133 31.8602 12.745 32.596 13.4608 32.8923L19.7917 35.5134C20.5065 35.8096 21.332 35.5945 21.8118 34.9865C24.5579 31.5041 26.9286 28.2333 29.0591 24.9872L36.5331 28.0817L36.1653 30.6287L35.051 38.3431L29.9479 73.6842H18.0023H9.20738C8.25208 73.6842 7.47754 74.4584 7.47754 75.4141V83.2702C7.47754 84.2255 8.25208 85.0001 9.20738 85.0001H75.7927C76.748 85.0001 77.5225 84.2255 77.5225 83.2702V75.4141C77.5225 74.4584 76.748 73.6842 75.7927 73.6842ZM63.8719 54.6879H59.8447C59.3665 54.6879 58.9791 55.0753 58.9791 55.5529V73.6842H55.0519L49.9485 38.3431L49.226 33.3373L63.8714 39.4015V54.6879H63.8719ZM46.7838 42.9708L40.704 38.4356L45.539 34.3491L46.7838 42.9708ZM44.7543 46.1897L37.0436 51.0923L38.4326 41.4738L44.7543 46.1897ZM47.6337 48.8553L49.4909 61.7193L39.4828 54.0376L47.6337 48.8553ZM40.214 73.6842L50.1765 66.4656L51.2189 73.6842H40.214ZM43.6103 31.0118L39.4333 34.5417L40.1499 29.5791L43.6103 31.0118ZM36.2822 56.3633L46.6592 64.3286L33.7852 73.6565L36.2822 56.3633Z" fill="#8E8283"/>
</g>
<defs>
<clipPath id="clip0_173_41">
<rect width="85" height="85" fill="white"/>
</clipPath>
</defs>
</svg>
