<svg width="64" height="64" viewBox="0 0 64 64" fill="none" xmlns="http://www.w3.org/2000/svg">
<path d="M39.4133 53.3333H26.08C21.28 53.3333 12.2133 50.9067 12.2133 41.7067C12.2133 32.5067 21.28 30.08 26.08 30.08H37.92C38.32 30.08 47.7867 29.9467 47.7867 22.4533C47.7867 14.96 38.32 14.8267 37.92 14.8267H24.5867C24.0562 14.8267 23.5475 14.6159 23.1724 14.2409C22.7974 13.8658 22.5867 13.3571 22.5867 12.8267C22.5867 12.2962 22.7974 11.7875 23.1724 11.4124C23.5475 11.0374 24.0562 10.8267 24.5867 10.8267H37.92C42.72 10.8267 51.7867 13.2533 51.7867 22.4533C51.7867 31.6533 42.72 34.08 37.92 34.08H26.08C25.68 34.08 16.2133 34.2133 16.2133 41.7067C16.2133 49.2 25.68 49.3333 26.08 49.3333H39.4133C39.9437 49.3333 40.4525 49.544 40.8275 49.9192C41.2027 50.2941 41.4133 50.8029 41.4133 51.3333C41.4133 51.8637 41.2027 52.3725 40.8275 52.7475C40.4525 53.1227 39.9437 53.3333 39.4133 53.3333Z" fill="#ACA5A5"/>
<path d="M17.1734 22.16C15.3151 22.1441 13.503 21.5787 11.9656 20.5348C10.4281 19.4909 9.23405 18.0152 8.53384 16.2939C7.8336 14.5725 7.65856 12.6823 8.03077 10.8616C8.40296 9.04092 9.30576 7.37111 10.6254 6.06263C11.945 4.75412 13.6223 3.86551 15.4461 3.50873C17.2699 3.15196 19.1585 3.34297 20.8739 4.05774C22.5893 4.77252 24.0548 5.97903 25.0857 7.52527C26.1165 9.07148 26.6666 10.8883 26.6667 12.7466C26.6667 13.9896 26.4206 15.2202 25.9426 16.3675C25.4645 17.5148 24.764 18.5561 23.8814 19.4313C22.9988 20.3065 21.9516 20.9982 20.8003 21.4665C19.6489 21.9348 18.4163 22.1705 17.1734 22.16ZM17.1734 7.33329C16.1185 7.33329 15.0874 7.64607 14.2103 8.23212C13.3333 8.81815 12.6497 9.65111 12.246 10.6256C11.8423 11.6002 11.7367 12.6725 11.9425 13.7071C12.1483 14.7417 12.6563 15.692 13.4021 16.4379C14.148 17.1837 15.0983 17.6917 16.1329 17.8975C17.1675 18.1033 18.2398 17.9976 19.2143 17.594C20.1889 17.1903 21.0218 16.5067 21.6079 15.6297C22.1939 14.7526 22.5067 13.7215 22.5067 12.6666C22.5067 11.9662 22.3687 11.2727 22.1007 10.6256C21.8327 9.97857 21.4398 9.39062 20.9446 8.89537C20.4494 8.40014 19.8614 8.00729 19.2143 7.73927C18.5673 7.47124 17.8738 7.33329 17.1734 7.33329Z" fill="#ACA5A5"/>
<path d="M46.8266 60.6666C44.9637 60.672 43.141 60.1242 41.5896 59.093C40.0381 58.0621 38.8274 56.5938 38.1109 54.8741C37.3944 53.1546 37.204 51.261 37.5642 49.4333C37.9245 47.6056 38.8189 45.9256 40.1344 44.6066C41.4498 43.2874 43.1269 42.3882 44.9538 42.0229C46.7805 41.6573 48.6746 41.8424 50.3962 42.5538C52.1178 43.2656 53.5896 44.4722 54.625 46.0208C55.6605 47.5693 56.2133 49.3904 56.2133 51.2533C56.2133 53.7453 55.2253 56.1354 53.4656 57.9C51.7061 59.6648 49.3186 60.6594 46.8266 60.6666ZM46.8266 45.84C45.7717 45.84 44.7408 46.1528 43.8637 46.7389C42.9866 47.3248 42.3029 48.1578 41.8992 49.1322C41.4957 50.1069 41.3901 51.1792 41.5957 52.2138C41.8016 53.2482 42.3096 54.1986 43.0554 54.9445C43.8013 55.6904 44.7517 56.1984 45.7861 56.4042C46.8208 56.6098 47.893 56.5042 48.8677 56.1005C49.8421 55.697 50.6752 55.0133 51.261 54.1362C51.8472 53.2592 52.16 52.2282 52.16 51.1733C52.16 49.7589 51.5981 48.4021 50.5978 47.4021C49.5976 46.4018 48.241 45.84 46.8266 45.84Z" fill="#ACA5A5"/>
</svg>
