<svg width="85" height="85" viewBox="0 0 85 85" fill="none" xmlns="http://www.w3.org/2000/svg">
<g clip-path="url(#clip0_159_41)">
<path d="M82.9488 3.59783L82.5252 2.47673L81.4041 2.05333C77.7962 0.69081 74.004 0 70.1328 0C61.6252 0 53.6265 3.31309 47.6105 9.32911L39.0812 17.8585L20.0181 18.7831L4.06299 34.738L17.8196 39.1201L12.7326 44.2069L15.7042 47.1784L9.12079 57.2693L27.7325 75.8813L37.8235 69.298L40.7951 72.2695L45.8821 67.1826L50.2638 80.9391L66.2192 64.984L67.1437 45.9212L75.673 37.3918C84.5087 28.5559 87.3646 15.291 82.9488 3.59783ZM13.977 32.3276L22.3215 23.9833L33.4984 23.4412L22.0428 34.8969L13.977 32.3276ZM28.4398 69.085L15.9171 56.5624L19.5379 51.0124L33.9896 65.4642L28.4398 69.085ZM61.0189 62.6808L52.6745 71.0252L50.1053 62.9594L61.561 51.5037L61.0189 62.6808ZM40.7951 64.766L20.236 44.2069L51.3622 13.0806C56.3762 8.06687 63.0421 5.30576 70.1328 5.30576C72.9549 5.30576 75.7259 5.7456 78.3869 6.61469C81.4733 16.0731 78.9994 26.5617 71.9213 33.6399L40.7951 64.766Z" fill="#8E8283"/>
<path d="M64.5449 12.498C62.4191 12.498 60.4206 13.3259 58.9175 14.829C55.8143 17.932 55.8143 22.9812 58.9175 26.0843C60.4206 27.5874 62.4193 28.4153 64.5449 28.4153C66.6706 28.4153 68.6693 27.5874 70.1724 26.0843C73.2755 22.9813 73.2755 17.9322 70.1724 14.829C68.6694 13.3259 66.6708 12.498 64.5449 12.498ZM66.4209 22.3326C65.9198 22.8337 65.2536 23.1097 64.5451 23.1097C63.8366 23.1097 63.1704 22.8337 62.6693 22.3328C61.6349 21.2984 61.6349 19.6154 62.6693 18.5809C63.1704 18.0799 63.8366 17.804 64.5451 17.804C65.2536 17.804 65.9198 18.0799 66.4209 18.5809C67.4551 19.6152 67.4551 21.2984 66.4209 22.3326Z" fill="#8E8283"/>
<path d="M0.00244141 66.4312L6.01546 60.418L9.76716 64.1697L3.75414 70.1827L0.00244141 66.4312ZM18.571 85.001L14.8193 81.2493L20.8323 75.2362L24.584 78.9879L18.571 85.001ZM4.42709 76.5591L13.2916 67.6946L17.0433 71.4463L8.17879 80.3108L4.42709 76.5591Z" fill="#8E8283"/>
</g>
<defs>
<clipPath id="clip0_159_41">
<rect width="85" height="85" fill="white"/>
</clipPath>
</defs>
</svg>
