<svg width="64" height="58" viewBox="0 0 64 58" fill="none" xmlns="http://www.w3.org/2000/svg">
<path d="M64 35.512C64 34.2239 62.8477 33.1796 61.4263 33.1796H59.3673V23.9965C59.3673 22.3446 57.9332 21.0509 56.1024 21.0509H54.1057C54.0877 21.0509 54.0731 21.0501 54.0616 21.0492C54.0508 21.0147 54.0436 20.9649 54.0447 20.9378L54.0483 15.5616C54.0483 14.407 52.9508 13.4316 51.6521 13.4316H45.1058C43.8148 13.4316 42.7239 14.407 42.7239 15.5616V20.7752L42.7288 20.8596C42.7328 20.8927 42.7266 20.9882 42.7091 21.0509H37.2818C36.4184 21.0509 35.689 20.3684 35.689 19.5608V9.39195C35.689 7.76111 34.2077 6.43427 32.3873 6.43427H8.02042C6.15241 6.43427 4.63271 7.76111 4.63271 9.39195V33.1796H2.57373C1.15234 33.1796 0 34.2239 0 35.512C0 36.8001 1.15234 37.8445 2.57373 37.8445H3.42906C3.34996 38.3759 3.30535 38.9174 3.30535 39.4681C3.30535 46.1388 9.29356 51.5657 16.6544 51.5657C21.3105 51.5657 25.4152 49.3927 27.8047 46.1083C29.4028 48.8861 32.6089 50.7883 36.2983 50.7883C39.5038 50.7883 42.3445 49.3516 44.0831 47.1532C45.8218 49.3516 48.6623 50.7883 51.868 50.7883C57.1474 50.7883 61.4424 46.8959 61.4424 42.1114C61.4424 40.561 60.9891 39.1054 60.1996 37.8445H61.4263C62.8477 37.8445 64 36.8001 64 35.512ZM13.3834 23.7893V13.9586C13.3834 13.4964 13.7981 13.1206 14.308 13.1206H25.4991C26.0091 13.1206 26.4238 13.4964 26.4238 13.9586V23.7893C26.4238 24.2513 26.0091 24.6273 25.4991 24.6273H14.308C13.7981 24.6273 13.3834 24.2513 13.3834 23.7893ZM16.6542 46.9009C12.132 46.9009 8.45263 43.5666 8.45263 39.4681C8.45263 35.3697 12.1319 32.0354 16.6542 32.0354C21.1766 32.0354 24.8557 35.3697 24.8557 39.4681C24.8557 43.5666 21.1766 46.9009 16.6542 46.9009ZM36.2983 46.1234C33.8574 46.1234 31.8715 44.3237 31.8715 42.1114C31.8715 39.8992 33.8574 38.0996 36.2983 38.0996C38.7394 38.0996 40.7253 39.8993 40.7253 42.1114C40.7253 44.3235 38.7392 46.1234 36.2983 46.1234ZM51.8678 46.1234C49.4267 46.1234 47.4408 44.3237 47.4408 42.1114C47.4408 39.8992 49.4267 38.0996 51.8678 38.0996C54.3089 38.0996 56.2948 39.8993 56.2948 42.1114C56.2948 44.3235 54.3089 46.1234 51.8678 46.1234Z" fill="#ACA5A5"/>
</svg>
